<?xml version='1.0' encoding='utf-8'?>
<svg xmlns="http://www.w3.org/2000/svg" version="1.1" id="Layer_1" x="0px" y="0px" viewBox="0 0 1665.964 1671.343" enable-background="new 0 0 1665.964 1671.343"> <g> <g> <g> <path fill="none" stroke="#000000" stroke-width="14.85" stroke-miterlimit="10" d="M1629.702,835.672 c-1.051,139.051-119.638,127.875-164.773,246.806"/> <path fill="none" stroke="#000000" stroke-width="14.85" stroke-miterlimit="10" d="M1575.697,1125.418 c49.831-130.878-65.933-161.315-64.795-289.746"/> </g> <line fill="none" stroke="#000000" stroke-width="14.85" stroke-miterlimit="10" x1="1628.468" y1="861.537" x2="1511.206" y2="857.811"/> <line fill="none" stroke="#000000" stroke-width="14.85" stroke-miterlimit="10" x1="1523.52" y1="908.158" x2="1610.41" y2="917.098"/> <line fill="none" stroke="#000000" stroke-width="14.85" stroke-miterlimit="10" x1="1584.792" y1="1100.327" x2="1474.043" y2="1061.61"/> <line fill="none" stroke="#000000" stroke-width="14.85" stroke-miterlimit="10" x1="1503.748" y1="1018.421" x2="1588.084" y2="1041.164"/> </g> <g> <g> <path fill="none" stroke="#000000" stroke-width="14.85" stroke-miterlimit="10" d="M1575.697,1125.418 c-47.544,128.678-155.005,74.095-243.072,170.434"/> <path fill="none" stroke="#000000" stroke-width="14.85" stroke-miterlimit="10" d="M1420.398,1375.912 c18.044-19.745,32.091-43.072,38.664-69.639c18.944-80.421-31.928-120.625,5.867-223.796"/> </g> <line fill="none" stroke="#000000" stroke-width="14.85" stroke-miterlimit="10" x1="1565.233" y1="1149.152" x2="1457.282" y2="1103.208"/> <line fill="none" stroke="#000000" stroke-width="14.85" stroke-miterlimit="10" x1="1450.495" y1="1154.537" x2="1528.209" y2="1194.417"/> <line fill="none" stroke="#000000" stroke-width="14.85" stroke-miterlimit="10" x1="1437.918" y1="1355.813" x2="1348.671" y2="1279.66"/> <line fill="none" stroke="#000000" stroke-width="14.85" stroke-miterlimit="10" x1="1392.03" y1="1250.125" x2="1462.384" y2="1301.895"/> </g> <g> <g> <path fill="none" stroke="#000000" stroke-width="14.85" stroke-miterlimit="10" d="M1420.398,1375.912 c-96.334,103.188-166.447,12.674-288.116,71.371"/> <path fill="none" stroke="#000000" stroke-width="14.85" stroke-miterlimit="10" d="M1185.316,1553.589 c123.454-59.859,61.025-165.685,147.309-257.737"/> </g> <line fill="none" stroke="#000000" stroke-width="14.85" stroke-miterlimit="10" x1="1402.043" y1="1394.208" x2="1317.949" y2="1312.401"/> <line fill="none" stroke="#000000" stroke-width="14.85" stroke-miterlimit="10" x1="1293.079" y1="1357.849" x2="1351.213" y2="1423.044"/> <line fill="none" stroke="#000000" stroke-width="14.85" stroke-miterlimit="10" x1="1208.948" y1="1541.204" x2="1153.1" y2="1438.028"/> <line fill="none" stroke="#000000" stroke-width="14.85" stroke-miterlimit="10" x1="1204.168" y1="1426.08" x2="1251.195" y2="1499.689"/> </g> <g> <g> <path fill="none" stroke="#000000" stroke-width="14.85" stroke-miterlimit="10" d="M1185.316,1553.589 c-122.187,61.702-165.364-49.168-294.413-37.744"/> <path fill="none" stroke="#000000" stroke-width="14.85" stroke-miterlimit="10" d="M901.73,1634.151 c137.036-12.195,115.156-128.475,230.552-186.867"/> </g> <line fill="none" stroke="#000000" stroke-width="14.85" stroke-miterlimit="10" x1="1161.605" y1="1564.095" x2="1112.668" y2="1457.467"/> <line fill="none" stroke="#000000" stroke-width="14.85" stroke-miterlimit="10" x1="1073.106" y1="1490.847" x2="1103.747" y2="1572.646"/> <line fill="none" stroke="#000000" stroke-width="14.85" stroke-miterlimit="10" x1="928.233" y1="1631.192" x2="913.673" y2="1514.778"/> <line fill="none" stroke="#000000" stroke-width="14.85" stroke-miterlimit="10" x1="965.583" y1="1522.176" x2="982.675" y2="1607.837"/> </g> <g> <g> <path fill="none" stroke="#000000" stroke-width="14.85" stroke-miterlimit="10" d="M901.73,1634.151 c-140.77,12.168-134.276-107.15-260.954-141.28"/> <path fill="none" stroke="#000000" stroke-width="14.85" stroke-miterlimit="10" d="M608.322,1607.152 c135.587,36.827,154.3-80.328,282.582-91.308"/> </g> <line fill="none" stroke="#000000" stroke-width="14.85" stroke-miterlimit="10" x1="875.844" y1="1635.324" x2="868.907" y2="1518.208"/> <line fill="none" stroke="#000000" stroke-width="14.85" stroke-miterlimit="10" x1="819.867" y1="1535.007" x2="818.896" y2="1622.35"/> <line fill="none" stroke="#000000" stroke-width="14.85" stroke-miterlimit="10" x1="634.16" y1="1613.838" x2="662.41" y2="1499.968"/> <line fill="none" stroke="#000000" stroke-width="14.85" stroke-miterlimit="10" x1="708.179" y1="1525.543" x2="693.363" y2="1611.626"/> </g> <g> <g> <path fill="none" stroke="#000000" stroke-width="14.85" stroke-miterlimit="10" d="M608.322,1607.152 c-134.226-39.762-86.757-143.469-192.141-226.316"/> <path fill="none" stroke="#000000" stroke-width="14.85" stroke-miterlimit="10" d="M344.518,1475.588 c107.01,83.65,176.359-18.497,296.257,17.283"/> </g> <line fill="none" stroke="#000000" stroke-width="14.85" stroke-miterlimit="10" x1="583.735" y1="1598.872" x2="619.445" y2="1487.118"/> <line fill="none" stroke="#000000" stroke-width="14.85" stroke-miterlimit="10" x1="567.72" y1="1485.129" x2="535.221" y2="1566.207"/> <line fill="none" stroke="#000000" stroke-width="14.85" stroke-miterlimit="10" x1="366.121" y1="1491.223" x2="433.751" y2="1395.356"/> <line fill="none" stroke="#000000" stroke-width="14.85" stroke-miterlimit="10" x1="467.141" y1="1435.808" x2="422.072" y2="1510.633"/> </g> <g> <g> <path fill="none" stroke="#000000" stroke-width="14.85" stroke-miterlimit="10" d="M344.518,1475.588 c-110.36-84.524-29.755-169.566-97.584-280.343"/> <path fill="none" stroke="#000000" stroke-width="14.85" stroke-miterlimit="10" d="M145.986,1257.879 c74.313,118.185,168.628,44.996,270.195,122.957"/> </g> <line fill="none" stroke="#000000" stroke-width="14.85" stroke-miterlimit="10" x1="324.598" y1="1459.006" x2="398.344" y2="1367.76"/> <line fill="none" stroke="#000000" stroke-width="14.85" stroke-miterlimit="10" x1="350.809" y1="1347.164" x2="291.221" y2="1411.033"/> <line fill="none" stroke="#000000" stroke-width="14.85" stroke-miterlimit="10" x1="160.52" y1="1280.244" x2="258.101" y2="1215.111"/> <line fill="none" stroke="#000000" stroke-width="14.85" stroke-miterlimit="10" x1="274.71" y1="1264.871" x2="205.741" y2="1318.472"/> </g> <g> <g> <path fill="none" stroke="#000000" stroke-width="14.85" stroke-miterlimit="10" d="M145.986,1257.879 c-74.253-119.005,35.017-167.783,10.272-296.598"/> <path fill="none" stroke="#000000" stroke-width="14.85" stroke-miterlimit="10" d="M39.456,982.98 c25.951,135.755,140.159,104.477,207.478,212.265"/> </g> <line fill="none" stroke="#000000" stroke-width="14.85" stroke-miterlimit="10" x1="133.313" y1="1235.262" x2="234.952" y2="1176.664"/> <line fill="none" stroke="#000000" stroke-width="14.85" stroke-miterlimit="10" x1="198.042" y1="1140.353" x2="119.441" y2="1178.455"/> <line fill="none" stroke="#000000" stroke-width="14.85" stroke-miterlimit="10" x1="44.902" y1="1009.103" x2="159.469" y2="983.829"/> <line fill="none" stroke="#000000" stroke-width="14.85" stroke-miterlimit="10" x1="156.896" y1="1036.186" x2="73.194" y2="1061.164"/> </g> <g> <g> <path fill="none" stroke="#000000" stroke-width="14.85" stroke-miterlimit="10" d="M39.456,982.98 c-25.318-136.808,90.486-142.898,116.802-272.919"/> <path fill="none" stroke="#000000" stroke-width="14.85" stroke-miterlimit="10" d="M39.456,688.363 c-25.047,135.346,90.665,143.784,116.802,272.919"/> </g> <line fill="none" stroke="#000000" stroke-width="14.85" stroke-miterlimit="10" x1="35.86" y1="957.299" x2="151.843" y2="939.623"/> <line fill="none" stroke="#000000" stroke-width="14.85" stroke-miterlimit="10" x1="130.656" y1="892.368" x2="43.586" y2="899.348"/> <line fill="none" stroke="#000000" stroke-width="14.85" stroke-miterlimit="10" x1="35.114" y1="714.687" x2="151.113" y2="732.255"/> <line fill="none" stroke="#000000" stroke-width="14.85" stroke-miterlimit="10" x1="129.892" y1="780.225" x2="42.809" y2="773.408"/> </g> <g> <g> <path fill="none" stroke="#000000" stroke-width="14.85" stroke-miterlimit="10" d="M39.456,688.363 c26.43-138.26,137.391-100.05,207.478-212.265"/> <path fill="none" stroke="#000000" stroke-width="14.85" stroke-miterlimit="10" d="M145.986,413.464 c-73.463,117.734,34.707,169.393,10.272,296.598"/> </g> <line fill="none" stroke="#000000" stroke-width="14.85" stroke-miterlimit="10" x1="45.377" y1="663.111" x2="159.967" y2="688.277"/> <line fill="none" stroke="#000000" stroke-width="14.85" stroke-miterlimit="10" x1="157.146" y1="636.593" x2="73.398" y2="611.773"/> <line fill="none" stroke="#000000" stroke-width="14.85" stroke-miterlimit="10" x1="132.369" y1="436.401" x2="234.064" y2="494.904"/> <line fill="none" stroke="#000000" stroke-width="14.85" stroke-miterlimit="10" x1="196.876" y1="531.877" x2="118.203" y2="493.922"/> </g> <g> <g> <path fill="none" stroke="#000000" stroke-width="14.85" stroke-miterlimit="10" d="M145.986,413.464 c73.826-117.41,169.436-45.616,270.195-122.957"/> <path fill="none" stroke="#000000" stroke-width="14.85" stroke-miterlimit="10" d="M344.518,195.755 c-111.424,85.341-28.53,167.563-97.584,280.343"/> </g> <line fill="none" stroke="#000000" stroke-width="14.85" stroke-miterlimit="10" x1="160.649" y1="392.085" x2="258.29" y2="457.126"/> <line fill="none" stroke="#000000" stroke-width="14.85" stroke-miterlimit="10" x1="274.429" y1="407.908" x2="205.36" y2="354.434"/> <line fill="none" stroke="#000000" stroke-width="14.85" stroke-miterlimit="10" x1="323.607" y1="212.302" x2="397.438" y2="303.479"/> <line fill="none" stroke="#000000" stroke-width="14.85" stroke-miterlimit="10" x1="349.409" y1="324.595" x2="289.703" y2="260.837"/> </g> <g> <g> <path fill="none" stroke="#000000" stroke-width="14.85" stroke-miterlimit="10" d="M344.518,195.755 c108.143-84.534,174.327,19.102,296.257-17.282"/> <path fill="none" stroke="#000000" stroke-width="14.85" stroke-miterlimit="10" d="M608.322,64.191 c-132.84,39.352-88.382,144.748-192.141,226.316"/> </g> <line fill="none" stroke="#000000" stroke-width="14.85" stroke-miterlimit="10" x1="365.881" y1="181.077" x2="433.6" y2="276.881"/> <line fill="none" stroke="#000000" stroke-width="14.85" stroke-miterlimit="10" x1="466.352" y1="236.755" x2="421.143" y2="162.015"/> <line fill="none" stroke="#000000" stroke-width="14.85" stroke-miterlimit="10" x1="582.825" y1="72.083" x2="618.641" y2="183.804"/> <line fill="none" stroke="#000000" stroke-width="14.85" stroke-miterlimit="10" x1="566.269" y1="186.106" x2="533.618" y2="105.089"/> </g> <g> <g> <path fill="none" stroke="#000000" stroke-width="14.85" stroke-miterlimit="10" d="M608.322,64.191 c138.313-37.566,151.668,80.105,282.582,91.308"/> <path fill="none" stroke="#000000" stroke-width="14.85" stroke-miterlimit="10" d="M901.73,37.193 c-138.694-11.99-138.441,108.271-260.954,141.28"/> </g> <line fill="none" stroke="#000000" stroke-width="14.85" stroke-miterlimit="10" x1="633.59" y1="58.314" x2="661.946" y2="172.157"/> <line fill="none" stroke="#000000" stroke-width="14.85" stroke-miterlimit="10" x1="707.001" y1="146.653" x2="692.024" y2="60.598"/> <line fill="none" stroke="#000000" stroke-width="14.85" stroke-miterlimit="10" x1="875.136" y1="35.324" x2="868.308" y2="152.446"/> <line fill="none" stroke="#000000" stroke-width="14.85" stroke-miterlimit="10" x1="818.551" y1="135.704" x2="817.42" y2="48.362"/> </g> <g> <g> <path fill="none" stroke="#000000" stroke-width="14.85" stroke-miterlimit="10" d="M901.73,37.193 c136.716,12.168,115.54,128.669,230.552,186.867"/> <path fill="none" stroke="#000000" stroke-width="14.85" stroke-miterlimit="10" d="M1185.316,117.754 c-124.084-62.659-163.666,49.324-294.413,37.744"/> </g> <line fill="none" stroke="#000000" stroke-width="14.85" stroke-miterlimit="10" x1="927.41" y1="40.71" x2="912.958" y2="157.138"/> <line fill="none" stroke="#000000" stroke-width="14.85" stroke-miterlimit="10" x1="964.174" y1="149.559" x2="981.105" y2="63.866"/> <line fill="none" stroke="#000000" stroke-width="14.85" stroke-miterlimit="10" x1="1161.197" y1="106.341" x2="1112.36" y2="213.015"/> <line fill="none" stroke="#000000" stroke-width="14.85" stroke-miterlimit="10" x1="1072.113" y1="179.423" x2="1102.6" y2="97.567"/> </g> <g> <g> <path fill="none" stroke="#000000" stroke-width="14.85" stroke-miterlimit="10" d="M1185.316,117.754 c124.543,60.387,59.514,164.073,147.309,257.737"/> <path fill="none" stroke="#000000" stroke-width="14.85" stroke-miterlimit="10" d="M1420.398,295.431 c-94.327-101.037-171.93-15.318-288.116-71.371"/> </g> <line fill="none" stroke="#000000" stroke-width="14.85" stroke-miterlimit="10" x1="1207.977" y1="130.36" x2="1152.227" y2="233.589"/> <line fill="none" stroke="#000000" stroke-width="14.85" stroke-miterlimit="10" x1="1202.71" y1="245.12" x2="1249.6" y2="171.423"/> <line fill="none" stroke="#000000" stroke-width="14.85" stroke-miterlimit="10" x1="1401.986" y1="276.147" x2="1317.967" y2="358.032"/> <line fill="none" stroke="#000000" stroke-width="14.85" stroke-miterlimit="10" x1="1292.533" y1="312.142" x2="1350.546" y2="246.839"/> </g> <g> <g> <path fill="none" stroke="#000000" stroke-width="14.85" stroke-miterlimit="10" d="M1420.398,295.431 c92.31,101.013-0.865,169.511,44.531,293.435"/> <path fill="none" stroke="#000000" stroke-width="14.85" stroke-miterlimit="10" d="M1575.697,545.925 c-46.732-126.481-157.863-77.223-243.072-170.434"/> </g> <line fill="none" stroke="#000000" stroke-width="14.85" stroke-miterlimit="10" x1="1436.941" y1="315.381" x2="1347.765" y2="391.617"/> <line fill="none" stroke="#000000" stroke-width="14.85" stroke-miterlimit="10" x1="1390.737" y1="420.548" x2="1460.995" y2="368.647"/> <line fill="none" stroke="#000000" stroke-width="14.85" stroke-miterlimit="10" x1="1565.531" y1="521.251" x2="1457.623" y2="567.296"/> <line fill="none" stroke="#000000" stroke-width="14.85" stroke-miterlimit="10" x1="1450.462" y1="515.354" x2="1528.101" y2="475.329"/> </g> <g> <g> <path fill="none" stroke="#000000" stroke-width="14.85" stroke-miterlimit="10" d="M1575.697,545.925 c49.934,131.148-65.93,161.713-64.795,289.746"/> <path fill="none" stroke="#000000" stroke-width="14.85" stroke-miterlimit="10" d="M1629.702,835.672 c-1.045-138.302-119.995-128.817-164.773-246.806"/> </g> <line fill="none" stroke="#000000" stroke-width="14.85" stroke-miterlimit="10" x1="1583.93" y1="570.525" x2="1473.218" y2="609.346"/> <line fill="none" stroke="#000000" stroke-width="14.85" stroke-miterlimit="10" x1="1502.78" y1="651.831" x2="1587.074" y2="628.93"/> <line fill="none" stroke="#000000" stroke-width="14.85" stroke-miterlimit="10" x1="1629.089" y1="809.039" x2="1511.831" y2="812.872"/> <line fill="none" stroke="#000000" stroke-width="14.85" stroke-miterlimit="10" x1="1524.016" y1="761.82" x2="1610.89" y2="752.718"/> </g> </g> </svg>